<svg preserveAspectRatio="none" width="100%" height="100%" overflow="visible" style="display: block;" viewBox="0 0 136 165" fill="none" xmlns="http://www.w3.org/2000/svg">
<g id="Vector" filter="url(#filter0_dddd_0_13)">
<path d="M118 53C118 80.6142 95.6142 103 68 103C40.3858 103 18 80.6142 18 53C18 25.3858 40.3858 3 68 3C95.6142 3 118 25.3858 118 53Z" fill="#EAF5FF"/>
<path d="M92.6575 37.3249V66.4877L80.3288 76.3084L61.2192 69.5417V76.2485L50.4007 62.5054L81.9315 64.9009V38.6423L92.6575 37.3249ZM82.1473 38.792L64.4554 28.3425V35.199L48.2123 39.8399L43.3425 45.9179V59.7209L50.3082 62.7151V45.0198L82.1473 38.792Z" fill="var(--fill-0, #0078D4)"/>
</g>
<defs>
<filter id="filter0_dddd_0_13" x="0" y="0" width="136" height="165" filterUnits="userSpaceOnUse" color-interpolation-filters="sRGB">
<feFlood flood-opacity="0" result="BackgroundImageFix"/>
<feColorMatrix in="SourceAlpha" type="matrix" values="0 0 0 0 0 0 0 0 0 0 0 0 0 0 0 0 0 0 127 0" result="hardAlpha"/>
<feOffset dy="3"/>
<feGaussianBlur stdDeviation="3"/>
<feColorMatrix type="matrix" values="0 0 0 0 0 0 0 0 0 0.470588 0 0 0 0 0.831373 0 0 0 0.1 0"/>
<feBlend mode="normal" in2="BackgroundImageFix" result="effect1_dropShadow_0_13"/>
<feColorMatrix in="SourceAlpha" type="matrix" values="0 0 0 0 0 0 0 0 0 0 0 0 0 0 0 0 0 0 127 0" result="hardAlpha"/>
<feOffset dy="11"/>
<feGaussianBlur stdDeviation="5.5"/>
<feColorMatrix type="matrix" values="0 0 0 0 0 0 0 0 0 0.470588 0 0 0 0 0.831373 0 0 0 0.09 0"/>
<feBlend mode="normal" in2="effect1_dropShadow_0_13" result="effect2_dropShadow_0_13"/>
<feColorMatrix in="SourceAlpha" type="matrix" values="0 0 0 0 0 0 0 0 0 0 0 0 0 0 0 0 0 0 127 0" result="hardAlpha"/>
<feOffset dy="25"/>
<feGaussianBlur stdDeviation="7.5"/>
<feColorMatrix type="matrix" values="0 0 0 0 0 0 0 0 0 0.470588 0 0 0 0 0.831373 0 0 0 0.05 0"/>
<feBlend mode="normal" in2="effect2_dropShadow_0_13" result="effect3_dropShadow_0_13"/>
<feColorMatrix in="SourceAlpha" type="matrix" values="0 0 0 0 0 0 0 0 0 0 0 0 0 0 0 0 0 0 127 0" result="hardAlpha"/>
<feOffset dy="44"/>
<feGaussianBlur stdDeviation="9"/>
<feColorMatrix type="matrix" values="0 0 0 0 0 0 0 0 0 0.470588 0 0 0 0 0.831373 0 0 0 0.01 0"/>
<feBlend mode="normal" in2="effect3_dropShadow_0_13" result="effect4_dropShadow_0_13"/>
<feBlend mode="normal" in="SourceGraphic" in2="effect4_dropShadow_0_13" result="shape"/>
</filter>
</defs>
</svg>
