<svg preserveAspectRatio="none" width="100%" height="100%" overflow="visible" style="display: block;" viewBox="0 0 136 165" fill="none" xmlns="http://www.w3.org/2000/svg">
<g id="Vector" filter="url(#filter0_dddd_0_8)">
<path d="M118 53C118 80.6142 95.6142 103 68 103C40.3858 103 18 80.6142 18 53C18 25.3858 40.3858 3 68 3C95.6142 3 118 25.3858 118 53Z" fill="#FFF0EA"/>
<path d="M68 53C68 48.3346 71.7821 44.5525 76.4475 44.5525C81.1129 44.5525 84.895 48.3346 84.895 53C84.895 57.6654 81.1129 61.4475 76.4475 61.4475C71.7821 61.4475 68 57.6654 68 53Z" fill="#1ABCFE"/>
<path d="M51.105 69.895C51.105 65.2296 54.8871 61.4475 59.5525 61.4475H68V69.895C68 74.5604 64.2179 78.3425 59.5525 78.3425C54.8871 78.3425 51.105 74.5604 51.105 69.895Z" fill="#0ACF83"/>
<path d="M68 27.6575V44.5525H76.4475C81.1129 44.5525 84.895 40.7704 84.895 36.105C84.895 31.4396 81.1129 27.6575 76.4475 27.6575H68Z" fill="#FF7262"/>
<path d="M51.105 36.105C51.105 40.7704 54.8871 44.5525 59.5525 44.5525H68V27.6575H59.5525C54.8871 27.6575 51.105 31.4396 51.105 36.105Z" fill="#F24E1E"/>
<path d="M51.105 53C51.105 57.6654 54.8871 61.4475 59.5525 61.4475H68V44.5525H59.5525C54.8871 44.5525 51.105 48.3346 51.105 53Z" fill="var(--fill-0, #A259FF)"/>
</g>
<defs>
<filter id="filter0_dddd_0_8" x="0" y="0" width="136" height="165" filterUnits="userSpaceOnUse" color-interpolation-filters="sRGB">
<feFlood flood-opacity="0" result="BackgroundImageFix"/>
<feColorMatrix in="SourceAlpha" type="matrix" values="0 0 0 0 0 0 0 0 0 0 0 0 0 0 0 0 0 0 127 0" result="hardAlpha"/>
<feOffset dy="3"/>
<feGaussianBlur stdDeviation="3"/>
<feColorMatrix type="matrix" values="0 0 0 0 1 0 0 0 0 0.580392 0 0 0 0 0.533333 0 0 0 0.1 0"/>
<feBlend mode="normal" in2="BackgroundImageFix" result="effect1_dropShadow_0_8"/>
<feColorMatrix in="SourceAlpha" type="matrix" values="0 0 0 0 0 0 0 0 0 0 0 0 0 0 0 0 0 0 127 0" result="hardAlpha"/>
<feOffset dy="11"/>
<feGaussianBlur stdDeviation="5.5"/>
<feColorMatrix type="matrix" values="0 0 0 0 1 0 0 0 0 0.580392 0 0 0 0 0.533333 0 0 0 0.09 0"/>
<feBlend mode="normal" in2="effect1_dropShadow_0_8" result="effect2_dropShadow_0_8"/>
<feColorMatrix in="SourceAlpha" type="matrix" values="0 0 0 0 0 0 0 0 0 0 0 0 0 0 0 0 0 0 127 0" result="hardAlpha"/>
<feOffset dy="25"/>
<feGaussianBlur stdDeviation="7.5"/>
<feColorMatrix type="matrix" values="0 0 0 0 1 0 0 0 0 0.580392 0 0 0 0 0.533333 0 0 0 0.05 0"/>
<feBlend mode="normal" in2="effect2_dropShadow_0_8" result="effect3_dropShadow_0_8"/>
<feColorMatrix in="SourceAlpha" type="matrix" values="0 0 0 0 0 0 0 0 0 0 0 0 0 0 0 0 0 0 127 0" result="hardAlpha"/>
<feOffset dy="44"/>
<feGaussianBlur stdDeviation="9"/>
<feColorMatrix type="matrix" values="0 0 0 0 1 0 0 0 0 0.580392 0 0 0 0 0.533333 0 0 0 0.01 0"/>
<feBlend mode="normal" in2="effect3_dropShadow_0_8" result="effect4_dropShadow_0_8"/>
<feBlend mode="normal" in="SourceGraphic" in2="effect4_dropShadow_0_8" result="shape"/>
</filter>
</defs>
</svg>
