<svg preserveAspectRatio="none" width="100%" height="100%" overflow="visible" style="display: block;" viewBox="0 0 100 100" fill="none" xmlns="http://www.w3.org/2000/svg">
<g id="Vector">
<path d="M100 50C100 77.6142 77.6142 100 50 100C22.3858 100 0 77.6142 0 50C0 22.3858 22.3858 0 50 0C77.6142 0 100 22.3858 100 50Z" fill="#F5F5F5"/>
<path d="M50 50C50 45.3346 53.7821 41.5525 58.4475 41.5525C63.1129 41.5525 66.895 45.3346 66.895 50C66.895 54.6654 63.1129 58.4475 58.4475 58.4475C53.7821 58.4475 50 54.6654 50 50Z" fill="#8C8C8C"/>
<path d="M33.105 66.895C33.105 62.2296 36.8871 58.4475 41.5525 58.4475H50V66.895C50 71.5604 46.2179 75.3425 41.5525 75.3425C36.8871 75.3425 33.105 71.5604 33.105 66.895Z" fill="#6D6D6D"/>
<path d="M50 24.6575V41.5525H58.4475C63.1129 41.5525 66.895 37.7704 66.895 33.105C66.895 28.4396 63.1129 24.6575 58.4475 24.6575H50Z" fill="#B1B1B1"/>
<path d="M33.105 33.105C33.105 37.7704 36.8871 41.5525 41.5525 41.5525H50V24.6575H41.5525C36.8871 24.6575 33.105 28.4396 33.105 33.105Z" fill="#888888"/>
<path d="M33.105 50C33.105 54.6654 36.8871 58.4475 41.5525 58.4475H50V41.5525H41.5525C36.8871 41.5525 33.105 45.3346 33.105 50Z" fill="var(--fill-0, #ACACAC)"/>
</g>
</svg>
