<svg preserveAspectRatio="none" width="100%" height="100%" overflow="visible" style="display: block;" viewBox="0 0 136 165" fill="none" xmlns="http://www.w3.org/2000/svg">
<g id="Vector" filter="url(#filter0_dddd_0_4)">
<path d="M118 53C118 80.6142 95.6142 103 68 103C40.3858 103 18 80.6142 18 53C18 25.3858 40.3858 3 68 3C95.6142 3 118 25.3858 118 53Z" fill="#F2ECFF"/>
<path d="M83.5328 66.8074C84.8932 64.7614 86.2016 62.6812 87.4567 60.569C87.6258 60.2749 87.7036 59.9371 87.6803 59.5987C87.657 59.2603 87.5336 58.9364 87.3257 58.6683C86.236 57.2216 84.1495 54.2861 83.0133 51.5682C81.8454 48.7784 81.6701 44.4406 81.6617 42.3245C81.6636 41.5218 81.3975 40.7414 80.9056 40.107L74.1519 31.5244C74.1265 31.91 74.0728 32.2933 73.9914 32.6711C73.7675 33.7334 73.343 34.7914 72.8594 35.8389C72.5764 36.4514 72.247 37.1061 71.9175 37.7692L71.2628 39.0912C70.1731 41.3467 69.1573 43.7943 68.8722 46.6728C68.6103 49.3338 68.9693 52.4382 70.5934 56.1361C70.8637 56.1594 71.1361 56.1889 71.4086 56.2291C74.0101 56.5797 76.452 57.6846 78.4326 59.4074C80.3671 61.0758 82.1158 63.4664 83.5328 66.799V66.8074ZM59.9728 75.3204C60.1269 75.3457 60.2811 75.3626 60.4374 75.3626C62.0846 75.4133 64.8618 75.5569 67.1109 75.9751C68.9482 76.313 72.587 77.3267 75.5795 78.2031C77.8667 78.8704 80.2214 77.0458 80.553 74.6889C80.7937 72.9699 81.2499 71.0248 82.0841 69.2403L82.063 69.2509C80.648 65.3017 78.8487 62.7505 76.9607 61.1223C75.3077 59.6813 73.2675 58.7581 71.0939 58.4676C67.8416 58.0115 64.8596 58.8689 62.9843 59.418C64.1078 64.1021 63.7615 69.6162 59.9749 75.3225L59.9728 75.3204ZM54.3425 48.6453C54.2939 48.8565 54.2243 49.0614 54.1356 49.2578L48.613 61.5721C48.3358 62.1903 48.2506 62.8776 48.3685 63.5448C48.4863 64.212 48.8018 64.8285 49.274 65.3143L57.9665 74.2687C62.4078 67.7198 61.7594 61.5552 59.732 56.7401C58.1946 53.0866 55.8631 50.2334 54.3467 48.6495L54.3425 48.6453ZM62.3402 57.2449C63.639 56.8584 65.7318 56.2628 68.1373 56.1171C66.6949 52.4741 66.3464 49.2894 66.6252 46.4511C66.9504 43.1735 68.1035 40.4386 69.2333 38.1092C69.472 37.6129 69.7043 37.1504 69.926 36.7069C70.2407 36.0797 70.5342 35.4884 70.8109 34.8907C71.2692 33.8981 71.6113 33.0217 71.7824 32.2086C71.9513 31.4061 71.9513 30.6881 71.7528 30.0059C71.5522 29.3196 71.1256 28.5804 70.3167 27.7674C69.7752 27.6262 69.207 27.6218 68.6633 27.7545C68.1196 27.8872 67.6174 28.1528 67.2017 28.5276L56.7479 37.9297C56.1647 38.454 55.7817 39.1647 55.6646 39.9402L54.7628 45.9168C56.182 47.1628 59.6792 50.8079 61.8059 55.8658C61.9959 56.3093 62.1755 56.7739 62.3402 57.2449Z" fill="var(--fill-0, #7C3AED)"/>
</g>
<defs>
<filter id="filter0_dddd_0_4" x="0" y="0" width="136" height="165" filterUnits="userSpaceOnUse" color-interpolation-filters="sRGB">
<feFlood flood-opacity="0" result="BackgroundImageFix"/>
<feColorMatrix in="SourceAlpha" type="matrix" values="0 0 0 0 0 0 0 0 0 0 0 0 0 0 0 0 0 0 127 0" result="hardAlpha"/>
<feOffset dy="3"/>
<feGaussianBlur stdDeviation="3"/>
<feColorMatrix type="matrix" values="0 0 0 0 0.486275 0 0 0 0 0.227451 0 0 0 0 0.929412 0 0 0 0.1 0"/>
<feBlend mode="normal" in2="BackgroundImageFix" result="effect1_dropShadow_0_4"/>
<feColorMatrix in="SourceAlpha" type="matrix" values="0 0 0 0 0 0 0 0 0 0 0 0 0 0 0 0 0 0 127 0" result="hardAlpha"/>
<feOffset dy="11"/>
<feGaussianBlur stdDeviation="5.5"/>
<feColorMatrix type="matrix" values="0 0 0 0 0.486275 0 0 0 0 0.227451 0 0 0 0 0.929412 0 0 0 0.09 0"/>
<feBlend mode="normal" in2="effect1_dropShadow_0_4" result="effect2_dropShadow_0_4"/>
<feColorMatrix in="SourceAlpha" type="matrix" values="0 0 0 0 0 0 0 0 0 0 0 0 0 0 0 0 0 0 127 0" result="hardAlpha"/>
<feOffset dy="25"/>
<feGaussianBlur stdDeviation="7.5"/>
<feColorMatrix type="matrix" values="0 0 0 0 0.486275 0 0 0 0 0.227451 0 0 0 0 0.929412 0 0 0 0.05 0"/>
<feBlend mode="normal" in2="effect2_dropShadow_0_4" result="effect3_dropShadow_0_4"/>
<feColorMatrix in="SourceAlpha" type="matrix" values="0 0 0 0 0 0 0 0 0 0 0 0 0 0 0 0 0 0 127 0" result="hardAlpha"/>
<feOffset dy="44"/>
<feGaussianBlur stdDeviation="9"/>
<feColorMatrix type="matrix" values="0 0 0 0 0.486275 0 0 0 0 0.227451 0 0 0 0 0.929412 0 0 0 0.01 0"/>
<feBlend mode="normal" in2="effect3_dropShadow_0_4" result="effect4_dropShadow_0_4"/>
<feBlend mode="normal" in="SourceGraphic" in2="effect4_dropShadow_0_4" result="shape"/>
</filter>
</defs>
</svg>
